<?xml version="1.0" encoding="UTF-8"?>
<svg viewBox="0 0 256 256" xmlns="http://www.w3.org/2000/svg">

  <defs>
    <!-- 외곽 프레임용 그라데이션 -->
    <linearGradient id="outerGrad" x1="0%" y1="0%" x2="0%" y2="100%">
      <stop offset="0%" stop-color="#FFFFFF" stop-opacity="0.8"/>
      <stop offset="100%" stop-color="#A0A0A0" stop-opacity="0.8"/>
    </linearGradient>
    <!-- 내부 프레임용 그라데이션 -->
    <linearGradient id="innerGrad" x1="0%" y1="0%" x2="0%" y2="100%">
      <stop offset="0%" stop-color="#ECECEC"/>
      <stop offset="100%" stop-color="#B0B0B0"/>
    </linearGradient>
    <!-- Wi-Fi 아이콘용 그라데이션 -->
    <linearGradient id="wifiGrad" x1="0%" y1="0%" x2="100%" y2="0%">
      <stop offset="0%" stop-color="#6AC47E"/>
      <stop offset="100%" stop-color="#00BCD4"/>
    </linearGradient>
  </defs>

  <!-- 0) 배경 (Adaptive Icon 배경색과 일치시켜주세요) -->
  <rect width="256" height="256" fill="#01475C"/>

  <!-- 1) 전체 묶음: 이동 및 축소 -->
  <g transform="translate(20 20) scale(0.8)">

    <!-- 2) 외곽 프레임: 12px 테두리 -->
    <rect x="12" y="12" width="232" height="232" rx="48"
          fill="none" stroke="url(#outerGrad)" stroke-width="12"/>

    <!-- 3) 내부 프레임: 24px 테두리 -->
    <rect x="48" y="48" width="160" height="160" rx="32"
          fill="none" stroke="url(#innerGrad)" stroke-width="24"/>

    <!-- 4) 전광판 화면 배경 -->
    <rect x="64" y="64" width="128" height="128" rx="16"
          fill="#08333F"/>

    <!-- 5) 메시지 라인들 -->
    <rect x="80"  y="84"  width="96"  height="12" rx="6" fill="#F7A440"/>
    <rect x="80"  y="108" width="64"  height="12" rx="6" fill="#7D5DF6"/>
    <rect x="80"  y="132" width="48"  height="12" rx="6" fill="#2975D9"/>

    <!-- 6) Wi-Fi 심볼 -->
    <path d="M172 76 a20 20 0 0 1 20 0"
          stroke="url(#wifiGrad)" stroke-width="4" fill="none" stroke-linecap="round"/>
    <path d="M172 92 a12 12 0 0 1 12 0"
          stroke="url(#wifiGrad)" stroke-width="3" fill="none" stroke-linecap="round"/>
    <circle cx="172" cy="108" r="4" fill="url(#wifiGrad)"/>

    <!-- 7) 물결 라인 -->
    <path d="M64 160 Q96 140 128 160 T192 160"
          stroke="#2975D9" stroke-width="4" fill="none"/>

  </g>
</svg>
